<mxfile host="app.diagrams.net" modified="2022-03-27T15:51:22.232Z" agent="5.0 (Windows NT 10.0; Win64; x64) AppleWebKit/537.36 (KHTML, like Gecko) Chrome/99.0.4844.82 Safari/537.36" etag="EPWHxyCVDXoMjjR816HO" version="17.2.4" type="github">
  <diagram id="CV0EzEBQIUhbnFdFUl1F" name="Page-1">
    <mxGraphModel dx="1146" dy="542" grid="1" gridSize="10" guides="1" tooltips="1" connect="1" arrows="1" fold="1" page="1" pageScale="1" pageWidth="850" pageHeight="1100" math="0" shadow="0">
      <root>
        <mxCell id="0" />
        <mxCell id="1" parent="0" />
        <mxCell id="8Z6mOFJXGf_nBv-I9SBo-10" style="edgeStyle=orthogonalEdgeStyle;rounded=0;orthogonalLoop=1;jettySize=auto;html=1;entryX=0;entryY=0.5;entryDx=0;entryDy=0;" edge="1" parent="1" source="8Z6mOFJXGf_nBv-I9SBo-1" target="8Z6mOFJXGf_nBv-I9SBo-9">
          <mxGeometry relative="1" as="geometry">
            <Array as="points">
              <mxPoint x="280" y="250" />
              <mxPoint x="280" y="125" />
            </Array>
          </mxGeometry>
        </mxCell>
        <mxCell id="8Z6mOFJXGf_nBv-I9SBo-1" value="Usuario" style="shape=umlActor;verticalLabelPosition=bottom;verticalAlign=top;html=1;outlineConnect=0;" vertex="1" parent="1">
          <mxGeometry x="200" y="220" width="30" height="60" as="geometry" />
        </mxCell>
        <mxCell id="8Z6mOFJXGf_nBv-I9SBo-11" value="Lisp Interpreter" style="swimlane;" vertex="1" parent="1">
          <mxGeometry x="240" y="40" width="560" height="520" as="geometry" />
        </mxCell>
        <mxCell id="8Z6mOFJXGf_nBv-I9SBo-9" value="Reader" style="ellipse;whiteSpace=wrap;html=1;" vertex="1" parent="8Z6mOFJXGf_nBv-I9SBo-11">
          <mxGeometry x="80" y="50" width="140" height="70" as="geometry" />
        </mxCell>
      </root>
    </mxGraphModel>
  </diagram>
</mxfile>
